<svg width="124" height="54" viewBox="0 0 124 54" fill="none" xmlns="http://www.w3.org/2000/svg">
<path d="M7.04883 32.3766C5.7832 32.3766 4.61133 32.0484 3.5332 31.3922C2.45508 30.7359 1.59375 29.857 0.949219 28.7555C0.316406 27.6422 0 26.4293 0 25.1168L0.0703125 7.11679C0.0703125 7.02304 0.117188 6.97617 0.210938 6.97617H4.25391C4.34766 6.97617 4.39453 7.02304 4.39453 7.11679V25.1168C4.39453 25.9254 4.65234 26.6168 5.16797 27.191C5.68359 27.7535 6.31055 28.0348 7.04883 28.0348C7.82227 28.0348 8.4668 27.7535 8.98242 27.191C9.49805 26.6168 9.75586 25.9254 9.75586 25.1168V7.11679C9.75586 7.02304 9.80273 6.97617 9.89648 6.97617H13.9395C14.0332 6.97617 14.0801 7.02304 14.0801 7.11679L14.1504 25.1168C14.1504 26.441 13.834 27.6598 13.2012 28.773C12.5566 29.8746 11.7012 30.7535 10.6348 31.4098C9.56836 32.0543 8.37305 32.3766 7.04883 32.3766Z" fill="white"/>
<path d="M20.9004 32.025H17.2969C17.1094 32.025 17.0156 31.943 17.0156 31.7789L16.9805 7.25742C16.9805 7.06992 17.0742 6.97617 17.2617 6.97617H20.5137L26.5957 21.1617L26.4199 7.25742C26.4199 7.06992 26.5254 6.97617 26.7363 6.97617H30.3047C30.4453 6.97617 30.5156 7.06992 30.5156 7.25742L30.5508 31.8141C30.5508 31.9547 30.4922 32.025 30.375 32.025H27.2109L20.9707 18.7711L21.2344 31.7437C21.2344 31.9312 21.123 32.025 20.9004 32.025Z" fill="white"/>
<path d="M40.3066 31.9898L33.8555 32.025C33.7383 32.025 33.6797 31.9664 33.6797 31.8492L33.75 7.11679C33.75 7.02304 33.7969 6.97617 33.8906 6.97617L40.623 6.94101C41.959 6.90585 43.166 7.21054 44.2441 7.85507C45.334 8.4996 46.2012 9.37265 46.8457 10.4742C47.502 11.5641 47.8301 12.7711 47.8301 14.0953V24.4312C47.8301 25.8141 47.4961 27.0797 46.8281 28.2281C46.1484 29.3648 45.2461 30.273 44.1211 30.9527C42.9961 31.6207 41.7246 31.9664 40.3066 31.9898ZM40.623 11.2477L38.1094 11.2828L38.0742 27.5953H40.3066C41.1973 27.5953 41.9473 27.2848 42.5566 26.6637C43.166 26.0426 43.4707 25.2984 43.4707 24.4312V14.0602C43.4707 13.2984 43.1895 12.6363 42.627 12.0738C42.0645 11.4996 41.3965 11.2242 40.623 11.2477Z" fill="white"/>
<path d="M62.4375 32.025H50.8008C50.707 32.025 50.6602 31.9664 50.6602 31.8492L50.6953 7.11679C50.6953 7.02304 50.7422 6.97617 50.8359 6.97617H62.4023C62.4961 6.97617 62.543 7.03476 62.543 7.15195V11.1773C62.543 11.2711 62.4961 11.318 62.4023 11.318H55.0195V16.943H62.4023C62.4961 16.943 62.543 16.9898 62.543 17.0836L62.5781 21.1617C62.5781 21.2555 62.5312 21.3023 62.4375 21.3023H55.0195V27.5953H62.4375C62.5312 27.5953 62.5781 27.6539 62.5781 27.7711V31.8844C62.5781 31.9781 62.5312 32.025 62.4375 32.025Z" fill="white"/>
<path d="M69.9961 32.025H65.918C65.8242 32.025 65.7773 31.9664 65.7773 31.8492L65.8477 7.11679C65.8477 7.02304 65.8945 6.97617 65.9883 6.97617H73.2656C74.5664 6.97617 75.7617 7.29257 76.8516 7.92539C77.9414 8.5582 78.8086 9.40781 79.4531 10.4742C80.1094 11.5406 80.4375 12.7477 80.4375 14.0953C80.4375 14.9742 80.3027 15.7711 80.0332 16.4859C79.7637 17.2008 79.4473 17.8043 79.084 18.2965C78.7324 18.7887 78.4102 19.1519 78.1172 19.3863C79.418 20.8277 80.0684 22.5211 80.0684 24.4664L80.1035 31.8492C80.1035 31.9664 80.0449 32.025 79.9277 32.025H75.8496C75.7559 32.025 75.709 31.9898 75.709 31.9195V24.4664C75.709 23.5992 75.4043 22.8492 74.7949 22.2164C74.1855 21.5836 73.4355 21.2672 72.5449 21.2672H70.1719L70.1367 31.8492C70.1367 31.9664 70.0898 32.025 69.9961 32.025ZM73.2656 11.2828H70.1719V16.943H73.2656C74.0039 16.943 74.6602 16.6676 75.2344 16.1168C75.8203 15.566 76.1133 14.8922 76.1133 14.0953C76.1133 13.3336 75.832 12.6773 75.2695 12.1266C74.707 11.5641 74.0391 11.2828 73.2656 11.2828Z" fill="white"/>
<path d="M94.9219 32.025H83.2852C83.1914 32.025 83.1445 31.9664 83.1445 31.8492L83.1797 7.15195C83.1797 7.03476 83.2383 6.97617 83.3555 6.97617H87.3633C87.4805 6.97617 87.5391 7.03476 87.5391 7.15195L87.5039 27.5953H94.9219C95.0391 27.5953 95.0977 27.6539 95.0977 27.7711V31.8492C95.0977 31.9664 95.0391 32.025 94.9219 32.025Z" fill="#FF0000"/>
<path d="M101.707 32.025H97.6289C97.5117 32.025 97.4531 31.9664 97.4531 31.8492L97.4883 7.11679C97.4883 7.02304 97.5352 6.97617 97.6289 6.97617H101.672C101.766 6.97617 101.812 7.02304 101.812 7.11679L101.848 31.8492C101.848 31.9664 101.801 32.025 101.707 32.025Z" fill="#FF0000"/>
<path d="M116.789 32.025H105.152C105.059 32.025 105.012 31.9664 105.012 31.8492L105.047 7.11679C105.047 7.02304 105.094 6.97617 105.188 6.97617H116.754C116.848 6.97617 116.895 7.03476 116.895 7.15195V11.1773C116.895 11.2711 116.848 11.318 116.754 11.318H109.371V16.943H116.754C116.848 16.943 116.895 16.9898 116.895 17.0836L116.93 21.1617C116.93 21.2555 116.883 21.3023 116.789 21.3023H109.371V27.5953H116.789C116.883 27.5953 116.93 27.6539 116.93 27.7711V31.8844C116.93 31.9781 116.883 32.025 116.789 32.025Z" fill="#FF0000"/>
<path d="M89.3427 52.5595C120.2 59.158 136.799 19.2258 111.191 0C132.857 16.9242 119.631 51.0323 92.9053 47.1573L3.38001 34.1771L89.3427 52.5595Z" fill="white"/>
</svg>
