<svg width="228" height="95" viewBox="0 0 228 95" fill="none" xmlns="http://www.w3.org/2000/svg">
<path d="M10.6973 47.3516C9.43164 47.3516 8.25977 47.0234 7.18164 46.3672C6.10352 45.7109 5.24219 44.832 4.59766 43.7305C3.96484 42.6172 3.64844 41.4043 3.64844 40.0918L3.71875 22.0918C3.71875 21.998 3.76562 21.9512 3.85938 21.9512H7.90234C7.99609 21.9512 8.04297 21.998 8.04297 22.0918V40.0918C8.04297 40.9004 8.30078 41.5918 8.81641 42.166C9.33203 42.7285 9.95898 43.0098 10.6973 43.0098C11.4707 43.0098 12.1152 42.7285 12.6309 42.166C13.1465 41.5918 13.4043 40.9004 13.4043 40.0918V22.0918C13.4043 21.998 13.4512 21.9512 13.5449 21.9512H17.5879C17.6816 21.9512 17.7285 21.998 17.7285 22.0918L17.7988 40.0918C17.7988 41.416 17.4824 42.6348 16.8496 43.748C16.2051 44.8496 15.3496 45.7285 14.2832 46.3848C13.2168 47.0293 12.0215 47.3516 10.6973 47.3516ZM24.5488 47H20.9453C20.7578 47 20.6641 46.918 20.6641 46.7539L20.6289 22.2324C20.6289 22.0449 20.7227 21.9512 20.9102 21.9512H24.1621L30.2441 36.1367L30.0684 22.2324C30.0684 22.0449 30.1738 21.9512 30.3848 21.9512H33.9531C34.0938 21.9512 34.1641 22.0449 34.1641 22.2324L34.1992 46.7891C34.1992 46.9297 34.1406 47 34.0234 47H30.8594L24.6191 33.7461L24.8828 46.7188C24.8828 46.9062 24.7715 47 24.5488 47ZM43.9551 46.9648L37.5039 47C37.3867 47 37.3281 46.9414 37.3281 46.8242L37.3984 22.0918C37.3984 21.998 37.4453 21.9512 37.5391 21.9512L44.2715 21.916C45.6074 21.8809 46.8145 22.1855 47.8926 22.8301C48.9824 23.4746 49.8496 24.3477 50.4941 25.4492C51.1504 26.5391 51.4785 27.7461 51.4785 29.0703V39.4062C51.4785 40.7891 51.1445 42.0547 50.4766 43.2031C49.7969 44.3398 48.8945 45.248 47.7695 45.9277C46.6445 46.5957 45.373 46.9414 43.9551 46.9648ZM44.2715 26.2227L41.7578 26.2578L41.7227 42.5703H43.9551C44.8457 42.5703 45.5957 42.2598 46.2051 41.6387C46.8145 41.0176 47.1191 40.2734 47.1191 39.4062V29.0352C47.1191 28.2734 46.8379 27.6113 46.2754 27.0488C45.7129 26.4746 45.0449 26.1992 44.2715 26.2227ZM66.0859 47H54.4492C54.3555 47 54.3086 46.9414 54.3086 46.8242L54.3438 22.0918C54.3438 21.998 54.3906 21.9512 54.4844 21.9512H66.0508C66.1445 21.9512 66.1914 22.0098 66.1914 22.127V26.1523C66.1914 26.2461 66.1445 26.293 66.0508 26.293H58.668V31.918H66.0508C66.1445 31.918 66.1914 31.9648 66.1914 32.0586L66.2266 36.1367C66.2266 36.2305 66.1797 36.2773 66.0859 36.2773H58.668V42.5703H66.0859C66.1797 42.5703 66.2266 42.6289 66.2266 42.7461V46.8594C66.2266 46.9531 66.1797 47 66.0859 47ZM73.6445 47H69.5664C69.4727 47 69.4258 46.9414 69.4258 46.8242L69.4961 22.0918C69.4961 21.998 69.543 21.9512 69.6367 21.9512H76.9141C78.2148 21.9512 79.4102 22.2676 80.5 22.9004C81.5898 23.5332 82.457 24.3828 83.1016 25.4492C83.7578 26.5156 84.0859 27.7227 84.0859 29.0703C84.0859 29.9492 83.9512 30.7461 83.6816 31.4609C83.4121 32.1758 83.0957 32.7793 82.7324 33.2715C82.3809 33.7637 82.0586 34.127 81.7656 34.3613C83.0664 35.8027 83.7168 37.4961 83.7168 39.4414L83.752 46.8242C83.752 46.9414 83.6934 47 83.5762 47H79.498C79.4043 47 79.3574 46.9648 79.3574 46.8945V39.4414C79.3574 38.5742 79.0527 37.8242 78.4434 37.1914C77.834 36.5586 77.084 36.2422 76.1934 36.2422H73.8203L73.7852 46.8242C73.7852 46.9414 73.7383 47 73.6445 47ZM76.9141 26.2578H73.8203V31.918H76.9141C77.6523 31.918 78.3086 31.6426 78.8828 31.0918C79.4688 30.541 79.7617 29.8672 79.7617 29.0703C79.7617 28.3086 79.4805 27.6523 78.918 27.1016C78.3555 26.5391 77.6875 26.2578 76.9141 26.2578Z" fill="white"/>
<path d="M98.5703 47H86.9336C86.8398 47 86.793 46.9414 86.793 46.8242L86.8281 22.127C86.8281 22.0098 86.8867 21.9512 87.0039 21.9512H91.0117C91.1289 21.9512 91.1875 22.0098 91.1875 22.127L91.1523 42.5703H98.5703C98.6875 42.5703 98.7461 42.6289 98.7461 42.7461V46.8242C98.7461 46.9414 98.6875 47 98.5703 47ZM105.355 47H101.277C101.16 47 101.102 46.9414 101.102 46.8242L101.137 22.0918C101.137 21.998 101.184 21.9512 101.277 21.9512H105.32C105.414 21.9512 105.461 21.998 105.461 22.0918L105.496 46.8242C105.496 46.9414 105.449 47 105.355 47ZM120.438 47H108.801C108.707 47 108.66 46.9414 108.66 46.8242L108.695 22.0918C108.695 21.998 108.742 21.9512 108.836 21.9512H120.402C120.496 21.9512 120.543 22.0098 120.543 22.127V26.1523C120.543 26.2461 120.496 26.293 120.402 26.293H113.02V31.918H120.402C120.496 31.918 120.543 31.9648 120.543 32.0586L120.578 36.1367C120.578 36.2305 120.531 36.2773 120.438 36.2773H113.02V42.5703H120.438C120.531 42.5703 120.578 42.6289 120.578 42.7461V46.8594C120.578 46.9531 120.531 47 120.438 47Z" fill="#FF0000"/>
<path d="M92.9911 67.5345C123.848 74.133 140.448 34.2008 114.84 14.975C136.506 31.8992 123.28 66.0073 96.5538 62.1323L7.02845 49.1521L92.9911 67.5345Z" fill="white"/>
</svg>
